<?xml version="1.0" encoding="UTF-8" standalone="no"?>
<!-- Created with Inkscape (http://www.inkscape.org/) -->

<svg
   xmlns:dc="http://purl.org/dc/elements/1.1/"
   xmlns:cc="http://creativecommons.org/ns#"
   xmlns:rdf="http://www.w3.org/1999/02/22-rdf-syntax-ns#"
   xmlns:svg="http://www.w3.org/2000/svg"
   xmlns="http://www.w3.org/2000/svg"
   xmlns:sodipodi="http://sodipodi.sourceforge.net/DTD/sodipodi-0.dtd"
   xmlns:inkscape="http://www.inkscape.org/namespaces/inkscape"
   width="202"
   height="170"
   id="svg3165"
   version="1.1"
   inkscape:version="0.48.3.1 r9886"
   sodipodi:docname="boy003.svg"
   inkscape:export-filename="/home/ct/ドキュメント/gramin/素材/Gramin/boy003.jpg.png"
   inkscape:export-xdpi="90"
   inkscape:export-ydpi="90">
  <defs
     id="defs3167" />
  <sodipodi:namedview
     id="base"
     pagecolor="#ffffff"
     bordercolor="#666666"
     borderopacity="1.0"
     inkscape:pageopacity="0.0"
     inkscape:pageshadow="2"
     inkscape:zoom="1.095627"
     inkscape:cx="226.56364"
     inkscape:cy="164.38722"
     inkscape:current-layer="layer1"
     inkscape:document-units="px"
     showgrid="false"
     inkscape:window-width="1280"
     inkscape:window-height="753"
     inkscape:window-x="0"
     inkscape:window-y="0"
     inkscape:window-maximized="1" />
  <metadata
     id="metadata3170">
    <rdf:RDF>
      <cc:Work
         rdf:about="">
        <dc:format>image/svg+xml</dc:format>
        <dc:type
           rdf:resource="http://purl.org/dc/dcmitype/StillImage" />
        <dc:title></dc:title>
      </cc:Work>
    </rdf:RDF>
  </metadata>
  <g
     id="layer1"
     inkscape:label="Layer 1"
     inkscape:groupmode="layer"
     transform="translate(0,-310)">
    <rect
       style="fill:#ffffff;fill-opacity:1;stroke:#000000;stroke-width:4;stroke-linecap:round;stroke-linejoin:round;stroke-miterlimit:4;stroke-opacity:1;stroke-dasharray:none"
       id="rect3964-0-4"
       width="19.642853"
       height="24.54874"
       x="321.30844"
       y="309.047"
       ry="4.4642901"
       transform="matrix(0.90268285,0.43030648,-0.43030648,0.90268285,0,0)" />
    <rect
       style="fill:#ffffff;fill-opacity:1;stroke:#000000;stroke-width:4;stroke-linecap:round;stroke-linejoin:round;stroke-miterlimit:4;stroke-opacity:1;stroke-dasharray:none"
       id="rect3984"
       width="46.225891"
       height="57.698318"
       x="103.21455"
       y="394.67804"
       ry="15.892866" />
    <path
       sodipodi:type="arc"
       style="fill:#ffffff;fill-opacity:1;stroke:#000000;stroke-width:4;stroke-linecap:round;stroke-linejoin:round;stroke-miterlimit:4;stroke-opacity:1;stroke-dasharray:none"
       id="path3017"
       sodipodi:cx="148.9975"
       sodipodi:cy="627.08795"
       sodipodi:rx="44.951786"
       sodipodi:ry="41.668793"
       d="m 193.94928,627.08795 a 44.951786,41.668793 0 1 1 -89.90357,0 44.951786,41.668793 0 1 1 89.90357,0 z"
       transform="matrix(1.0365767,0,0,1.0365767,-31.849345,-290.09562)" />
    <path
       style="fill:#00aad4;fill-opacity:1;stroke:#000000;stroke-width:1px;stroke-linecap:butt;stroke-linejoin:miter;stroke-opacity:1"
       d="m 81.688385,343.09209 c 0,0 82.144745,2.73816 82.601105,0.45636 0.45636,-2.2818 -14.92293,-26.29225 -40.15966,-25.55614 -24.993395,0.72901 -35.139685,11.40899 -42.441445,25.09978 z"
       id="path3080"
       inkscape:connector-curvature="0"
       sodipodi:nodetypes="cssc" />
    <rect
       style="fill:#00aad4;fill-opacity:1;stroke:#000000;stroke-width:4.14630651;stroke-linecap:round;stroke-linejoin:round;stroke-miterlimit:4;stroke-opacity:1;stroke-dasharray:none"
       id="rect3019"
       width="120.31693"
       height="9.9955702"
       x="19.03187"
       y="352.25198"
       ry="4.6275787"
       transform="matrix(0.99318744,-0.11652774,0.11652774,0.99318744,0,0)" />
    <path
       style="fill:none;stroke:#000000;stroke-width:3.61821985;stroke-linecap:butt;stroke-linejoin:miter;stroke-miterlimit:4;stroke-opacity:1;stroke-dasharray:none"
       d="M 111.19149,350.81596 84.780065,381.27407"
       id="path3021"
       inkscape:connector-curvature="0" />
    <path
       style="fill:none;stroke:#000000;stroke-width:1.94244599;stroke-linecap:butt;stroke-linejoin:miter;stroke-miterlimit:4;stroke-opacity:1;stroke-dasharray:none"
       d="m 155.83751,346.32718 12.571,18.44311"
       id="path3021-4"
       inkscape:connector-curvature="0" />
    <g
       style="stroke-width:2;stroke-miterlimit:4;stroke-dasharray:none"
       id="g4021"
       transform="translate(41.708745,-190.87271)">
      <g
         id="g3791"
         transform="translate(-143.7533,-26.925222)">
        <rect
           style="fill:#ffffff;fill-opacity:1;stroke:#000000;stroke-width:3.5;stroke-linecap:round;stroke-linejoin:round;stroke-miterlimit:4;stroke-opacity:1;stroke-dasharray:none"
           id="rect4004"
           width="17.930212"
           height="21.213202"
           x="182.33253"
           y="641.73517"
           ry="8.9650831" />
        <path
           style="fill:none;stroke:#000000;stroke-width:2;stroke-linecap:butt;stroke-linejoin:miter;stroke-miterlimit:4;stroke-opacity:1;stroke-dasharray:none"
           d="m 183.125,652.45151 16.60714,-0.0893"
           id="path4006"
           inkscape:connector-curvature="0" />
        <path
           style="fill:none;stroke:#000000;stroke-width:2;stroke-linecap:butt;stroke-linejoin:miter;stroke-miterlimit:4;stroke-opacity:1;stroke-dasharray:none"
           d="m 191.16071,652.8979 0.0893,8.92857"
           id="path4019"
           inkscape:connector-curvature="0" />
      </g>
    </g>
    <rect
       style="fill:#ffffff;fill-opacity:1;stroke:#000000;stroke-width:4;stroke-linecap:round;stroke-linejoin:round;stroke-miterlimit:4;stroke-opacity:1;stroke-dasharray:none"
       id="rect3964"
       width="19.642853"
       height="24.54874"
       x="251.28603"
       y="328.47711"
       ry="4.4642901"
       transform="matrix(0.91272363,0.40857751,-0.40857751,0.91272363,0,0)" />
    <rect
       style="fill:#ffffff;fill-opacity:1;stroke:#000000;stroke-width:4;stroke-linecap:round;stroke-linejoin:round;stroke-miterlimit:4;stroke-opacity:1;stroke-dasharray:none"
       id="rect3964-0"
       width="19.642853"
       height="24.54874"
       x="164.79036"
       y="363.43509"
       ry="4.4642901" />
    <path
       style="fill:none;stroke:#000000;stroke-width:4;stroke-linecap:round;stroke-linejoin:round;stroke-miterlimit:4;stroke-opacity:1;stroke-dasharray:none"
       d="m 86.237865,446.85618 c -2.70827,0.66772 -1.49092,9.99887 -14.40959,4.30621 -12.91866,-5.69264 -20.49895,-12.56018 -23.90213,-9.64888 -14.20206,18.3297 -39.7439104,6.91799 -25.27496,-3.5646 14.46893,-10.4826 7.20803,-14.67572 -1.07635,-18.59689 -8.2844,-3.92118 2.5423,-20.38309 15.52502,-4.55767"
       id="path4026"
       inkscape:connector-curvature="0"
       sodipodi:nodetypes="czczzc" />
    <path
       sodipodi:type="arc"
       style="fill:#000000;fill-opacity:1;stroke:none"
       id="path3022"
       sodipodi:cx="283.85574"
       sodipodi:cy="209.37869"
       sodipodi:rx="4.5635972"
       sodipodi:ry="4.5635972"
       d="m 288.41934,209.37869 a 4.5635972,4.5635972 0 1 1 -9.12719,0 4.5635972,4.5635972 0 1 1 9.12719,0 z"
       transform="matrix(1.0365767,0,0,1.0365767,-174.85645,151.40411)" />
    <path
       transform="matrix(1.0365767,0,0,1.0365767,-143.57394,147.26349)"
       sodipodi:type="arc"
       style="fill:#000000;fill-opacity:1;stroke:none"
       id="path3022-4"
       sodipodi:cx="283.85574"
       sodipodi:cy="209.37869"
       sodipodi:rx="4.5635972"
       sodipodi:ry="4.5635972"
       d="m 288.41934,209.37869 a 4.5635972,4.5635972 0 1 1 -9.12719,0 4.5635972,4.5635972 0 1 1 9.12719,0 z" />
    <path
       style="fill:none;stroke:#000000;stroke-width:1.03657663px;stroke-linecap:butt;stroke-linejoin:miter;stroke-opacity:1"
       d="m 106.69284,364.60669 c 6.96997,-10.15897 12.19316,-6.83897 17.50291,-1.41916"
       id="path3042"
       inkscape:connector-curvature="0"
       sodipodi:nodetypes="cc" />
    <path
       style="fill:none;stroke:#000000;stroke-width:1.03657663px;stroke-linecap:butt;stroke-linejoin:miter;stroke-opacity:1"
       d="m 159.87082,358.58213 c -8.46676,-8.9498 -13.10931,-4.85701 -17.51041,1.32345"
       id="path3042-0"
       inkscape:connector-curvature="0"
       sodipodi:nodetypes="cc" />
    <rect
       style="fill:#ffffff;fill-opacity:1;stroke:#000000;stroke-width:4;stroke-linecap:round;stroke-linejoin:round;stroke-miterlimit:4;stroke-opacity:1;stroke-dasharray:none"
       id="rect3964-0-4-0"
       width="19.642853"
       height="24.54874"
       x="343.50778"
       y="-332.16733"
       ry="4.4642901"
       transform="matrix(-0.46985177,0.88274533,-0.88274533,-0.46985177,0,0)" />
    <path
       style="fill:none;stroke:#000000;stroke-width:2;stroke-linecap:butt;stroke-linejoin:miter;stroke-miterlimit:4;stroke-opacity:1;stroke-dasharray:none"
       d="m 115.00264,381.42631 c 16.22648,1.65934 32.09842,-1.06349 34.14868,-4.08431 2.25887,-3.32818 1.83494,17.39704 -14.06886,18.68782 -9.09728,0.73835 -19.1671,-9.1272 -20.07982,-14.60351 z"
       id="path3838"
       inkscape:connector-curvature="0"
       sodipodi:nodetypes="cssc" />
  </g>
</svg>
