<?xml version="1.0" encoding="UTF-8" standalone="no"?>
<!-- Created with Inkscape (http://www.inkscape.org/) -->

<svg
   xmlns:dc="http://purl.org/dc/elements/1.1/"
   xmlns:cc="http://creativecommons.org/ns#"
   xmlns:rdf="http://www.w3.org/1999/02/22-rdf-syntax-ns#"
   xmlns:svg="http://www.w3.org/2000/svg"
   xmlns="http://www.w3.org/2000/svg"
   xmlns:sodipodi="http://sodipodi.sourceforge.net/DTD/sodipodi-0.dtd"
   xmlns:inkscape="http://www.inkscape.org/namespaces/inkscape"
   width="385"
   height="215"
   id="svg2"
   version="1.1"
   inkscape:version="0.91 r13725"
   sodipodi:docname="gramin_logo.svg"
   inkscape:export-filename="/home/ihe/ダウンロード/gramin_logo.png"
   inkscape:export-xdpi="86.489998"
   inkscape:export-ydpi="86.489998">
  <defs
     id="defs4">
    <filter
       inkscape:collect="always"
       id="filter5011"
       x="-0.11042998"
       width="1.22086"
       y="-0.078966687"
       height="1.1579334">
      <feGaussianBlur
         inkscape:collect="always"
         stdDeviation="1.4873483"
         id="feGaussianBlur5013" />
    </filter>
    <filter
       inkscape:collect="always"
       id="filter5015"
       x="-0.37197462"
       width="1.7439492"
       y="-0.28270073"
       height="1.5654015">
      <feGaussianBlur
         inkscape:collect="always"
         stdDeviation="1.4873483"
         id="feGaussianBlur5017" />
    </filter>
    <filter
       inkscape:collect="always"
       id="filter5019"
       x="-0.26669883"
       width="1.5333977"
       y="-0.18357191"
       height="1.3671438">
      <feGaussianBlur
         inkscape:collect="always"
         stdDeviation="1.4873483"
         id="feGaussianBlur5021" />
    </filter>
    <filter
       inkscape:collect="always"
       id="filter5023"
       x="-0.47116753"
       width="1.9423351"
       y="-0.32872178"
       height="1.6574436">
      <feGaussianBlur
         inkscape:collect="always"
         stdDeviation="1.4873483"
         id="feGaussianBlur5025" />
    </filter>
    <filter
       inkscape:collect="always"
       id="filter5027"
       x="-0.13461942"
       width="1.2692388"
       y="-0.094866009"
       height="1.189732">
      <feGaussianBlur
         inkscape:collect="always"
         stdDeviation="1.4873483"
         id="feGaussianBlur5029" />
    </filter>
    <filter
       inkscape:collect="always"
       id="filter5031"
       x="-0.14723997"
       width="1.2944799"
       y="-0.10169089"
       height="1.2033818">
      <feGaussianBlur
         inkscape:collect="always"
         stdDeviation="1.4873483"
         id="feGaussianBlur5033" />
    </filter>
    <filter
       inkscape:collect="always"
       id="filter5177"
       x="-0.13194117"
       width="1.2638823"
       y="-0.15001773"
       height="1.3000355">
      <feGaussianBlur
         inkscape:collect="always"
         stdDeviation="3.5136205"
         id="feGaussianBlur5179" />
    </filter>
    <filter
       inkscape:collect="always"
       id="filter6019">
      <feGaussianBlur
         inkscape:collect="always"
         stdDeviation="2.5827245"
         id="feGaussianBlur6021" />
    </filter>
  </defs>
  <sodipodi:namedview
     id="base"
     pagecolor="#ffffff"
     bordercolor="#666666"
     borderopacity="1.0"
     inkscape:pageopacity="0.0"
     inkscape:pageshadow="2"
     inkscape:zoom="2.8284272"
     inkscape:cx="154.91302"
     inkscape:cy="67.535253"
     inkscape:document-units="px"
     inkscape:current-layer="g3035"
     showgrid="false"
     fit-margin-top="0"
     fit-margin-left="0"
     fit-margin-right="0"
     fit-margin-bottom="0"
     inkscape:window-width="1280"
     inkscape:window-height="751"
     inkscape:window-x="0"
     inkscape:window-y="1"
     inkscape:window-maximized="1"
     showguides="true"
     inkscape:guide-bbox="true" />
  <metadata
     id="metadata7">
    <rdf:RDF>
      <cc:Work
         rdf:about="">
        <dc:format>image/svg+xml</dc:format>
        <dc:type
           rdf:resource="http://purl.org/dc/dcmitype/StillImage" />
        <dc:title />
      </cc:Work>
    </rdf:RDF>
  </metadata>
  <g
     inkscape:groupmode="layer"
     id="layer2"
     inkscape:label="background"
     transform="translate(0,-0.75105286)"
     style="display:inline">
    <rect
       style="color:#000000;fill:none;fill-opacity:1;fill-rule:nonzero;stroke:none;stroke-width:7.08661413000000007;marker:none;visibility:visible;display:inline;overflow:visible;enable-background:accumulate"
       id="rect2994"
       width="385"
       height="215"
       x="-4.3596538e-06"
       y="0.7510525"
       inkscape:export-filename="/home/ihe/document/pj/make_all/workspace/gramin/素材/settings/gramin_logo_color.png"
       inkscape:export-xdpi="94.604652"
       inkscape:export-ydpi="94.604652" />
  </g>
  <g
     inkscape:label="レイヤー 1"
     inkscape:groupmode="layer"
     id="layer1"
     transform="translate(-184.38931,-413.81251)">
    <g
       style="display:inline"
       inkscape:export-ydpi="90"
       inkscape:export-xdpi="90"
       inkscape:export-filename="/home/ihe/document/pj/make_all/workspace/makeall/proj/gramin/image/logo_big.png"
       transform="matrix(0.9836823,0,0,0.98167212,159.03251,299.52137)"
       id="g3327">
      <g
         id="g3035"
         transform="translate(10.638855,-5.3241442)">
        <path
           inkscape:connector-curvature="0"
           id="rect3330"
           d="m 99.893445,180.49214 155.141455,0 c 38.63416,0 69.73675,31.10259 69.73675,69.73675 l 0,12.39426 c 0,38.63416 -31.10259,69.73675 -69.73675,69.73675 l -155.141455,0 c -38.634156,0 -69.736746,-31.10259 -69.736746,-69.73675 l 0,-12.39426 c 0,-38.63416 31.10259,-69.73675 69.736746,-69.73675 z"
           style="fill:#83cc83;fill-opacity:1;stroke:#83cc83;stroke-width:3.08556724" />
        <g
           id="flowRoot3332"
           style="font-size:40px;font-style:normal;font-weight:normal;line-height:125%;letter-spacing:0px;word-spacing:0px;fill:#ffffff;fill-opacity:1;stroke:#ffffff;stroke-width:2;stroke-miterlimit:4;stroke-opacity:1;font-family:Sans"
           transform="matrix(3.0855672,0,0,3.0855672,-195.13888,669.6677)">
          <path
             inkscape:connector-curvature="0"
             id="path2997"
             style="font-variant:normal;font-stretch:normal;font-family:'Takao Pゴシック';-inkscape-font-specification:'Takao Pゴシック';stroke-linejoin:round"
             d="m 110.41086,-123.86911 c -1.3489,2.28144 -2.44214,2.81638 -4.27805,3.832 -2.1745,1.17188 -4.54429,1.75781 -7.109373,1.75781 -4.114595,0 -7.460946,-1.37369 -10.039062,-4.12109 -2.539066,-2.69531 -3.808596,-6.23046 -3.808594,-10.60547 -2e-6,-4.50519 1.321611,-8.15753 3.964844,-10.95703 2.526033,-2.69528 5.696603,-4.04294 9.511719,-4.04297 5.273416,3e-5 9.003886,2.28518 11.191406,6.85547 l -3.18359,1.48437 c -1.64065,-3.52862 -4.29039,-5.29294 -7.949223,-5.29296 -2.721367,2e-5 -4.9935,1.02867 -6.816406,3.08593 -1.914069,2.20055 -2.8711,5.14976 -2.871094,8.84766 -6e-6,3.32032 0.839837,6.04167 2.519532,8.16406 1.874989,2.34376 4.43358,3.51563 7.675781,3.51563 3.47654,0 6.08722,-1.05469 7.83203,-3.16407 l 0,-5.5664 -6.34765,0 0,-2.71485 9.6289,0 0,9.4336"
             sodipodi:nodetypes="ccscsccccccscscccccc" />
          <path
             inkscape:connector-curvature="0"
             id="path2999"
             style="font-variant:normal;font-stretch:normal;stroke-width:2.00005531;stroke-linecap:round;stroke-linejoin:round;stroke-miterlimit:4;stroke-dasharray:none;font-family:'Takao Pゴシック';-inkscape-font-specification:'Takao Pゴシック'"
             d="m 127.40234,-139.17773 -0.60546,3.39843 c -0.44273,-0.0911 -0.83986,-0.1367 -1.19141,-0.13672 -1.53647,2e-5 -2.806,0.72268 -3.80859,2.16797 -1.25001,1.82293 -1.87501,3.42449 -1.875,4.80469 l 0,10.07813 -3.4375,0 0,-19.92188 3.24218,0 -0.15625,5.91797 0.0781,0 c 1.47134,-4.3229 3.61327,-6.48435 6.42578,-6.48438 0.45571,3e-5 0.89842,0.0586 1.32812,0.17579" />
          <path
             inkscape:connector-curvature="0"
             id="path3001"
             style="font-variant:normal;font-stretch:normal;stroke-linecap:round;stroke-linejoin:round;font-family:'Takao Pゴシック';-inkscape-font-specification:'Takao Pゴシック'"
             d="m 147.53906,-118.86523 -3.04687,0 c -0.45575,-1.00261 -0.74872,-2.03125 -0.87891,-3.08594 l -0.11719,0 c -1.51043,2.42187 -3.76303,3.63281 -6.75781,3.63281 -2.0573,0 -3.73698,-0.65104 -5.03906,-1.95312 -1.14584,-1.14583 -1.71875,-2.54557 -1.71875,-4.19922 0,-4.11458 3.54817,-6.27603 10.64453,-6.48438 l 2.67578,-0.0781 0,-1.03516 c -1e-5,-1.39321 -0.40366,-2.48696 -1.21094,-3.28125 -0.82032,-0.83331 -1.88152,-1.24998 -3.18359,-1.25 -2.23959,2e-5 -3.91928,1.08726 -5.03906,3.26172 l -2.96875,-1.36719 c 1.83593,-3.04685 4.53124,-4.57029 8.08593,-4.57031 2.43489,2e-5 4.3164,0.68361 5.64454,2.05078 1.22394,1.22398 1.83592,2.95575 1.83593,5.19531 l 0,7.32422 c -1e-5,2.48698 0.35806,4.4336 1.07422,5.83985 m -4.16015,-9.76563 -2.20704,0.0391 c -5.14323,0.1172 -7.71484,1.50392 -7.71484,4.16016 0,0.9375 0.30598,1.71224 0.91797,2.32422 0.7552,0.74219 1.74478,1.11328 2.96875,1.11328 1.70572,0 3.18358,-0.625 4.43359,-1.875 1.0677,-1.10677 1.60155,-2.4414 1.60157,-4.00391 l 0,-1.75781" />
        </g>
        <g
           id="flowRoot3340"
           style="font-size:40px;font-style:normal;font-weight:normal;line-height:125%;letter-spacing:0px;word-spacing:0px;fill:#83cc83;fill-opacity:1;stroke:#83cc83;stroke-width:3;stroke-miterlimit:4;font-family:Sans"
           transform="matrix(2.5288991,1.7678784,-1.7678784,2.5288991,-221.20976,326.20548)">
          <path
             inkscape:connector-curvature="0"
             id="path3004"
             style="font-variant:normal;font-stretch:normal;stroke-linecap:round;stroke-linejoin:round;font-family:'Takao Pゴシック';-inkscape-font-specification:'Takao Pゴシック'"
             d="m 113.88702,-118.50582 -3.4375,0 0,-12.48047 c -3e-5,-3.35936 -1.30211,-5.03905 -3.90625,-5.03907 -1.237,2e-5 -2.36981,0.57294 -3.39844,1.71875 -0.72919,0.80731 -1.237,1.82294 -1.52344,3.04688 l 0,12.75391 -3.437491,0 0,-12.51954 c -1.6e-5,-3.33331 -1.230483,-4.99998 -3.691407,-5 -1.302094,2e-5 -2.447926,0.57294 -3.4375,1.71875 -1.067715,1.18492 -1.601569,2.33075 -1.601562,3.4375 l 0,12.36329 -3.4375,0 0,-19.92188 3.203125,0 0,3.4375 c 1.315096,-2.55206 3.300771,-3.8281 5.957031,-3.82812 2.903631,2e-5 4.837214,1.38673 5.800774,4.16015 1.4453,-2.77342 3.52212,-4.16013 6.23047,-4.16015 2.18747,2e-5 3.8932,0.77476 5.11719,2.32421 1.04163,1.27606 1.56247,3.08596 1.5625,5.42969 l 0,12.5586" />
          <path
             inkscape:connector-curvature="0"
             id="path3006"
             style="font-variant:normal;font-stretch:normal;stroke-linecap:round;stroke-linejoin:round;font-family:'Takao Pゴシック';-inkscape-font-specification:'Takao Pゴシック'"
             d="m 124.70733,-142.66598 -3.92578,0 0,-4.00391 3.92578,0 0,4.00391 m -0.2539,24.16016 -3.4375,0 0,-19.92188 3.4375,0 0,19.92188" />
          <path
             inkscape:connector-curvature="0"
             id="path3008"
             style="font-variant:normal;font-stretch:normal;stroke-linecap:round;stroke-linejoin:round;font-family:'Takao Pゴシック';-inkscape-font-specification:'Takao Pゴシック'"
             d="m 148.92608,-118.50582 -3.4375,0 0,-12.36329 c -2e-5,-3.3854 -1.39975,-5.0781 -4.19922,-5.07812 -2.82553,2e-5 -4.89584,1.69272 -6.21094,5.07812 l 0,12.36329 -3.4375,0 0,-19.92188 3.20313,0 0,3.59375 c 1.87499,-2.65623 4.26431,-3.98435 7.16797,-3.98437 4.60936,2e-5 6.91404,2.58465 6.91406,7.7539 l 0,12.5586" />
        </g>
        <path
           inkscape:export-ydpi="90"
           inkscape:export-xdpi="90"
           inkscape:export-filename="/home/ihe/document/pj/make_all/workspace/makeall/proj/gramin/image/logo.png"
           inkscape:connector-curvature="0"
           id="path3348"
           d="m 211.54278,182.52652 2.98914,2.12133 1.44637,-2.12133 -4.43551,0 z m 37.3161,0 -12.24587,17.54916 8.67817,6.07471 16.10281,-22.9489 c -3.09988,-0.41795 -6.23158,-0.67497 -9.44955,-0.67497 l -3.08556,0 z m 39.14813,10.02809 -20.44188,29.21647 8.77458,6.07471 20.34546,-29.12004 c -2.72246,-2.2766 -5.62376,-4.32699 -8.67816,-6.17114 z m 23.43103,23.43103 -17.06705,24.49169 8.67816,6.07471 13.78863,-19.76692 c -1.48027,-3.79157 -3.30983,-7.36793 -5.39974,-10.79948 z m 10.22094,42.6194 -0.48212,0.67496 0.48212,0.3857 0,-1.06066 z"
           style="font-size:40px;font-style:normal;font-weight:normal;line-height:125%;letter-spacing:0px;word-spacing:0px;fill:#ffffff;fill-opacity:1;stroke:#ffffff;stroke-width:9.25670147;stroke-miterlimit:4;stroke-opacity:1;stroke-dasharray:none;font-family:Sans" />
        <path
           transform="matrix(0.99741086,0,0,0.99945329,25.742027,120.62269)"
           inkscape:connector-curvature="0"
           id="path4855"
           d="M 214.90995,9.1814189 182.58507,54.385745"
           style="fill:none;stroke:#ffffff;stroke-width:1px;stroke-linecap:round;stroke-linejoin:round;stroke-opacity:1;filter:url(#filter5011)" />
        <path
           transform="matrix(0.99741086,0,0,0.99945329,25.742027,120.62269)"
           inkscape:connector-curvature="0"
           id="path4857"
           d="m 237.13331,42.263915 -9.59645,12.626907"
           style="fill:none;stroke:#ffffff;stroke-width:1px;stroke-linecap:round;stroke-linejoin:round;stroke-opacity:1;filter:url(#filter5015)" />
        <path
           transform="matrix(0.99741086,0,0,0.99945329,25.742027,120.62269)"
           inkscape:connector-curvature="0"
           id="path4859"
           d="M 303.80338,68.527881 290.41886,87.973317"
           style="fill:none;stroke:#ffffff;stroke-width:1px;stroke-linecap:round;stroke-linejoin:round;stroke-opacity:1;filter:url(#filter5019)" />
        <path
           transform="matrix(0.99741086,0,0,0.99945329,25.742027,120.62269)"
           inkscape:connector-curvature="0"
           id="path4861"
           d="m 318.95567,47.314677 -7.57615,10.85914"
           style="fill:none;stroke:#ffffff;stroke-width:1px;stroke-linecap:round;stroke-linejoin:round;stroke-opacity:1;filter:url(#filter5023)" />
        <path
           transform="matrix(0.99741086,0,0,0.99945329,25.742027,120.62269)"
           inkscape:connector-curvature="0"
           id="path4863"
           d="m 330.57242,88.478394 -26.5165,37.628186"
           style="fill:none;stroke:#ffffff;stroke-width:1px;stroke-linecap:round;stroke-linejoin:round;stroke-opacity:1;filter:url(#filter5027)" />
        <path
           transform="matrix(0.99741086,0,0,0.99945329,25.742027,120.62269)"
           inkscape:connector-curvature="0"
           id="path4865"
           d="m 355.06862,127.6218 -24.24366,35.10281"
           style="fill:none;stroke:#ffffff;stroke-width:1px;stroke-linecap:round;stroke-linejoin:round;stroke-opacity:1;filter:url(#filter5031)" />
        <path
           transform="matrix(0.98113539,0,0,0.98113539,0.45087963,6.3940422)"
           sodipodi:nodetypes="zczcz"
           inkscape:connector-curvature="0"
           id="path5035"
           d="m 49.109039,201.92503 c -12.906432,14.11253 -20.515378,32.40181 -18.75923,49.83525 4.61299,-20.1352 7.675709,-33.16159 21.046554,-47.79791 13.370845,-14.63632 35.125199,-22.57571 52.290767,-26.19892 -22.813668,0.99055 -41.671659,10.04905 -54.578091,24.16158 z"
           style="font-size:medium;font-style:normal;font-variant:normal;font-weight:normal;font-stretch:normal;text-indent:0;text-align:start;text-decoration:none;line-height:normal;letter-spacing:normal;word-spacing:normal;text-transform:none;direction:ltr;block-progression:tb;writing-mode:lr-tb;text-anchor:start;baseline-shift:baseline;color:#000000;fill:#ffffff;fill-opacity:1;stroke:none;stroke-width:3;marker:none;visibility:visible;display:inline;overflow:visible;filter:url(#filter6019);enable-background:accumulate;font-family:Sans;-inkscape-font-specification:Sans" />
        <path
           transform="matrix(-0.99431116,-0.07873392,0.07857302,-0.99634721,320.42084,339.42358)"
           sodipodi:nodetypes="czc"
           inkscape:connector-curvature="0"
           id="path5035-0"
           d="m 64.624154,5.33836 c 0,0 -26.25,3.214285 -42.857143,22.857143 C 5.1598683,47.838357 5.3384392,66.409787 5.3384392,66.409787"
           style="fill:none;stroke:#55b855;stroke-width:3;stroke-linecap:round;stroke-linejoin:round;stroke-miterlimit:4;stroke-opacity:1;stroke-dasharray:none;display:inline;filter:url(#filter5177)" />
      </g>
    </g>
  </g>
</svg>
